<svg width="11" height="19" viewBox="0 0 11 19" fill="none" xmlns="http://www.w3.org/2000/svg">
<path d="M5.272 18.32C5.208 18.3627 5.12267 18.3627 5.016 18.32C4.90933 18.2987 4.792 18.2347 4.664 18.128C4.536 18.0427 4.39733 17.936 4.248 17.808C4.16267 17.7227 4.10933 17.6267 4.088 17.52C4.06667 17.392 4.088 17.1787 4.152 16.88C4.216 16.5813 4.312 16.1013 4.44 15.44C4.52533 15.0133 4.62133 14.5867 4.728 14.16C4.83467 13.7333 4.93067 13.3813 5.016 13.104C5.10133 12.8053 5.144 12.656 5.144 12.656C5.25067 12.6133 5.4 12.2933 5.592 11.696C5.80533 11.0987 6.04 10.3733 6.296 9.52C6.38133 9.22133 6.53067 8.72 6.744 8.016C6.95733 7.312 7.17067 6.62933 7.384 5.968C7.576 5.34933 7.736 4.79467 7.864 4.304C7.992 3.792 8.056 3.536 8.056 3.536C8.056 3.536 7.896 3.632 7.576 3.824C7.27733 3.99467 6.89333 4.22933 6.424 4.528C5.95467 4.80533 5.496 5.11467 5.048 5.456C4.68533 5.66933 4.248 5.968 3.736 6.352C3.24533 6.736 2.808 7.04533 2.424 7.28C1.848 7.728 1.496 7.984 1.368 8.048C1.24 8.09067 1.08 8.05867 0.888 7.952C0.610667 7.71733 0.418667 7.472 0.312 7.216C0.226667 6.96 0.248 6.72533 0.376 6.512C0.418667 6.49067 0.546667 6.40533 0.76 6.256C0.994667 6.10667 1.25067 5.936 1.528 5.744C1.80533 5.552 2.06133 5.37067 2.296 5.2C2.552 5.02933 2.73333 4.912 2.84 4.848C2.904 4.848 3.02133 4.77333 3.192 4.624C3.36267 4.47467 3.544 4.336 3.736 4.208C3.84267 4.08 4.216 3.792 4.856 3.344C5.496 2.896 6.18933 2.39467 6.936 1.84C7.72533 1.34933 8.38667 0.954666 8.92 0.655998C9.47467 0.357332 9.79467 0.218665 9.88 0.24C9.944 0.24 10.04 0.282667 10.168 0.368C10.3173 0.453332 10.456 0.559999 10.584 0.688C10.712 0.815999 10.7867 0.943999 10.808 1.072C10.936 1.22133 10.872 1.56267 10.616 2.096C10.5307 2.288 10.392 2.64 10.2 3.152C10.008 3.64267 9.79467 4.21867 9.56 4.88C9.34667 5.52 9.13333 6.16 8.92 6.8C8.728 7.41867 8.568 7.952 8.44 8.4C8.26933 9.06133 8.10933 9.57333 7.96 9.936C7.832 10.2987 7.704 10.6507 7.576 10.992C7.46933 11.312 7.34133 11.76 7.192 12.336C7.04267 12.6773 6.88267 13.1147 6.712 13.648C6.56267 14.16 6.424 14.672 6.296 15.184C6.168 15.6747 6.072 16.08 6.008 16.4C5.83733 16.8693 5.69867 17.2853 5.592 17.648C5.48533 18.0107 5.37867 18.2347 5.272 18.32Z" fill="#4B4955"/>
</svg>
