<svg width="14" height="17" viewBox="0 0 14 17" fill="none" xmlns="http://www.w3.org/2000/svg">
<path d="M2.088 16.264C2.00267 16.2213 1.87467 16.1467 1.704 16.04C1.55467 15.912 1.39467 15.7733 1.224 15.624C1.07467 15.4533 0.968 15.304 0.904 15.176C0.84 15.0693 0.84 14.8773 0.904 14.6C0.989333 14.3227 1.07467 14.184 1.16 14.184C1.224 14.2267 1.33067 14.152 1.48 13.96C1.62933 13.768 1.77867 13.5653 1.928 13.352C2.07733 13.1173 2.152 12.9787 2.152 12.936C2.17333 12.8507 2.22667 12.7867 2.312 12.744C2.41867 12.68 2.51467 12.616 2.6 12.552C2.70667 12.3813 2.84533 12.2107 3.016 12.04C3.208 11.848 3.35733 11.688 3.464 11.56C3.63467 11.3467 3.944 11.0267 4.392 10.6C4.84 10.1733 5.27733 9.736 5.704 9.288C6.152 8.79733 6.54667 8.37067 6.888 8.008C7.22933 7.624 7.41067 7.35733 7.432 7.208C7.432 7.208 7.464 7.176 7.528 7.112C7.61333 7.02667 7.70933 6.952 7.816 6.888C7.92267 6.824 8.06133 6.71733 8.232 6.568C8.424 6.41867 8.584 6.28 8.712 6.152C8.75467 5.98133 8.872 5.74667 9.064 5.448C9.27733 5.128 9.49067 4.86133 9.704 4.648C9.87467 4.392 10.0347 4.11467 10.184 3.816C10.3333 3.496 10.4293 3.26133 10.472 3.112C10.536 2.87733 10.536 2.73867 10.472 2.696C10.408 2.632 10.1413 2.52533 9.672 2.376C9.16 2.20533 8.59467 2.14133 7.976 2.184C7.37867 2.20533 6.70667 2.48267 5.96 3.016C5.66133 3.08 5.384 3.16533 5.128 3.272C4.89333 3.37867 4.69067 3.42133 4.52 3.4C4.43467 3.35733 4.33867 3.26133 4.232 3.112C4.12533 2.96267 4.008 2.824 3.88 2.696L3.56 2.024L4.552 1.48C5.42667 0.925332 6.216 0.541332 6.92 0.327999C7.64533 0.114666 8.30667 0.103999 8.904 0.296C9.13867 0.296 9.352 0.327999 9.544 0.391998C9.736 0.434666 9.832 0.455999 9.832 0.455999C10.0027 0.434666 10.216 0.530666 10.472 0.743999C10.728 0.936 10.9733 1.18133 11.208 1.48C11.464 1.77867 11.656 2.07733 11.784 2.376C12.1253 2.888 12.232 3.432 12.104 4.008C11.9973 4.56267 11.6773 5.23467 11.144 6.024C11.0373 6.152 10.8027 6.41867 10.44 6.824C10.0773 7.22933 9.66133 7.688 9.192 8.2C8.744 8.69067 8.328 9.128 7.944 9.512C7.58133 9.896 7.34667 10.1413 7.24 10.248C7.09067 10.312 6.83467 10.536 6.472 10.92C6.13067 11.2827 5.75733 11.688 5.352 12.136C4.968 12.5627 4.63733 12.9467 4.36 13.288C4.104 13.608 3.99733 13.768 4.04 13.768C4.01867 13.8533 4.05067 13.896 4.136 13.896C4.22133 13.8747 4.36 13.832 4.552 13.768C4.872 13.6613 5.288 13.5547 5.8 13.448C6.33333 13.3413 6.87733 13.256 7.432 13.192C7.98667 13.1067 8.46667 13.0533 8.872 13.032C9.29867 13.0107 9.544 13.032 9.608 13.096C9.65067 13.2027 9.68267 13.2453 9.704 13.224C9.74667 13.1813 9.768 13.16 9.768 13.16C9.81067 13.0107 10.0773 12.968 10.568 13.032C11.08 13.096 11.5387 13.192 11.944 13.32C12.1787 13.384 12.36 13.4373 12.488 13.48C12.6373 13.5227 12.712 13.5867 12.712 13.672C12.712 13.672 12.7333 13.7253 12.776 13.832C12.84 13.9173 12.936 14.0347 13.064 14.184C13.4053 14.4613 13.448 14.6427 13.192 14.728C12.936 14.8133 12.3813 14.7813 11.528 14.632C10.9733 14.632 10.5147 14.664 10.152 14.728C10.0667 14.7707 9.88533 14.792 9.608 14.792C9.33067 14.792 9.064 14.8027 8.808 14.824C8.424 14.7813 8.04 14.8027 7.656 14.888C7.272 14.952 6.81333 15.0693 6.28 15.24C6.088 15.304 5.78933 15.4 5.384 15.528C4.97867 15.656 4.54133 15.784 4.072 15.912C3.60267 16.04 3.176 16.136 2.792 16.2C2.42933 16.264 2.19467 16.2853 2.088 16.264Z" fill="#4B4955"/>
</svg>
