<svg width="13" height="18" viewBox="0 0 13 18" fill="none" xmlns="http://www.w3.org/2000/svg">
<path d="M3.776 17.488C3.24267 17.488 2.72 17.4347 2.208 17.328C1.71733 17.2 1.32267 17.04 1.024 16.848C0.725334 16.6347 0.586667 16.4 0.608 16.144C0.629334 15.8027 0.704 15.6213 0.832 15.6C0.96 15.5573 1.25867 15.568 1.728 15.632C2.45333 15.7813 3.232 15.792 4.064 15.664C4.896 15.536 5.67467 15.312 6.4 14.992C7.12533 14.672 7.69067 14.3093 8.096 13.904C8.672 13.3493 8.928 12.7947 8.864 12.24C8.82133 11.6853 8.49067 11.2053 7.872 10.8C7.59467 10.608 7.21067 10.4267 6.72 10.256C6.22933 10.0853 5.73867 9.95733 5.248 9.872C4.77867 9.76533 4.39467 9.72267 4.096 9.744C3.904 9.76533 3.744 9.76533 3.616 9.744C3.50933 9.72267 3.31733 9.63733 3.04 9.488C2.912 9.33867 2.79467 9.17867 2.688 9.008C2.58133 8.816 2.50667 8.67733 2.464 8.592C2.44267 8.48533 2.496 8.37867 2.624 8.272C2.77333 8.16533 3.08267 7.984 3.552 7.728C4.02133 7.45067 4.74667 7.04533 5.728 6.512C6.624 6.02133 7.328 5.62667 7.84 5.328C8.37333 5.008 8.78933 4.752 9.088 4.56C9.408 4.34667 9.664 4.15467 9.856 3.984C10.24 3.472 10.432 3.14133 10.432 2.992C10.432 2.84267 10.1547 2.71467 9.6 2.608C9.06667 2.56533 8.55467 2.53333 8.064 2.512C7.57333 2.49067 7.328 2.52267 7.328 2.608C7.328 2.608 7.31733 2.608 7.296 2.608C7.296 2.608 7.264 2.608 7.2 2.608C7.09333 2.56533 6.85867 2.576 6.496 2.64C6.13333 2.704 5.78133 2.77867 5.44 2.864C5.12 2.94933 4.94933 3.024 4.928 3.088C4.90667 3.13067 4.77867 3.20533 4.544 3.312C4.33067 3.39733 4.10667 3.472 3.872 3.536C3.65867 3.6 3.52 3.632 3.456 3.632C3.34933 3.58933 3.22133 3.48267 3.072 3.312C2.944 3.12 2.83733 2.928 2.752 2.736C2.66667 2.52267 2.64533 2.36267 2.688 2.256C2.73067 2.17067 2.85867 2.064 3.072 1.936C3.30667 1.78667 3.57333 1.63733 3.872 1.488C4.17067 1.31733 4.43733 1.17867 4.672 1.072C4.97067 0.986665 5.38667 0.922665 5.92 0.879999C6.47467 0.837333 7.02933 0.816 7.584 0.816C8.13867 0.794666 8.544 0.794666 8.8 0.816C9.78133 0.922667 10.5387 1.17867 11.072 1.584C11.6053 1.98933 11.936 2.53333 12.064 3.216C12.128 3.51467 12.1493 3.76 12.128 3.952C12.1067 4.144 12.0107 4.34667 11.84 4.56C11.6693 4.752 11.3707 5.04 10.944 5.424C10.4107 5.76533 9.97333 6.05333 9.632 6.288C9.29067 6.52267 8.77867 6.82133 8.096 7.184C7.94667 7.29067 7.744 7.42933 7.488 7.6C7.232 7.77067 6.99733 7.93067 6.784 8.08C6.57067 8.208 6.464 8.29333 6.464 8.336C6.464 8.336 6.50667 8.368 6.592 8.432C6.67733 8.47467 6.784 8.53867 6.912 8.624C7.04 8.70933 7.15733 8.80533 7.264 8.912C7.88267 9.12533 8.448 9.46667 8.96 9.936C9.472 10.4053 9.83467 10.7893 10.048 11.088C10.3467 11.7493 10.464 12.3893 10.4 13.008C10.3573 13.6267 10.144 14.2133 9.76 14.768C9.376 15.3013 8.81067 15.792 8.064 16.24C7.46667 16.5813 6.77333 16.8693 5.984 17.104C5.19467 17.3173 4.45867 17.4453 3.776 17.488Z" fill="#4B4955"/>
</svg>
