<svg width="13" height="19" viewBox="0 0 13 19" fill="none" xmlns="http://www.w3.org/2000/svg">
<path d="M5.144 17.776C4.99467 17.584 4.92 17.36 4.92 17.104C4.92 16.848 5.016 16.3253 5.208 15.536C5.31467 14.9813 5.44267 14.384 5.592 13.744C5.74133 13.0827 5.85867 12.56 5.944 12.176C6.11467 11.7707 6.24267 11.3973 6.328 11.056C6.43467 10.7147 6.488 10.544 6.488 10.544C6.488 10.544 6.34933 10.5547 6.072 10.576C5.79467 10.5973 5.464 10.6933 5.08 10.864C4.01333 11.12 3.18133 11.1947 2.584 11.088C2.008 10.9813 1.54933 10.64 1.208 10.064C1.10133 9.95733 1.00533 9.776 0.92 9.52C0.856 9.24267 0.824 8.976 0.824 8.72C0.824 8.464 0.877334 8.28267 0.984 8.176C1.112 7.89867 1.24 7.62133 1.368 7.344C1.51733 7.06667 1.63467 6.82133 1.72 6.608C1.82667 6.39467 1.88 6.26667 1.88 6.224C1.88 6.16 1.90133 6.096 1.944 6.032C2.008 5.94667 2.04 5.86133 2.04 5.776C2.12533 5.584 2.328 5.232 2.648 4.72C2.98933 4.18667 3.36267 3.61067 3.768 2.992C4.19467 2.37333 4.58933 1.808 4.952 1.296C5.336 0.784 5.61333 0.453333 5.784 0.303999C5.95467 0.218665 6.136 0.154666 6.328 0.112C6.52 0.0479991 6.648 0.0586656 6.712 0.143999C6.776 0.250666 6.84 0.410666 6.904 0.623999C6.968 0.837332 7.01067 1.02933 7.032 1.2C7.07467 1.37067 7.064 1.456 7 1.456C7 1.456 6.968 1.46667 6.904 1.488C6.86133 1.488 6.84 1.53067 6.84 1.616C6.84 1.70133 6.73333 1.88267 6.52 2.16C6.30667 2.43733 6.072 2.72533 5.816 3.024C5.51733 3.42933 5.24 3.824 4.984 4.208C4.728 4.57067 4.48267 4.93333 4.248 5.296C4.01333 5.65867 3.77867 6.02133 3.544 6.384C3.33067 6.74667 3.11733 7.12 2.904 7.504C2.66933 8.22933 2.53067 8.688 2.488 8.88C2.46667 9.072 2.49867 9.21067 2.584 9.296C2.712 9.36 2.97867 9.38133 3.384 9.36C3.81067 9.31733 4.39733 9.18933 5.144 8.976C5.54933 8.89067 5.92267 8.816 6.264 8.752C6.62667 8.66667 6.88267 8.58133 7.032 8.496C7.20267 8.496 7.352 8.464 7.48 8.4C7.62933 8.336 7.704 8.26133 7.704 8.176C7.704 8.09067 7.768 7.90933 7.896 7.632C8.04533 7.35467 8.16267 7.09867 8.248 6.864C8.41867 6.544 8.62133 6.11733 8.856 5.584C9.112 5.02933 9.368 4.54933 9.624 4.144C10.1573 2.94933 10.488 2.18133 10.616 1.84C10.7653 1.47733 10.8827 1.296 10.968 1.296C11.0533 1.296 11.1707 1.33867 11.32 1.424C11.4693 1.488 11.5867 1.60533 11.672 1.776C11.8213 1.92533 11.9173 2.07467 11.96 2.224C12.0027 2.352 11.9387 2.56533 11.768 2.864C11.7253 3.12 11.6613 3.344 11.576 3.536C11.512 3.70667 11.4053 3.92 11.256 4.176C11.128 4.432 10.936 4.80533 10.68 5.296C10.424 5.808 10.1253 6.416 9.784 7.12C9.464 7.824 9.144 8.54933 8.824 9.296C8.504 10.0427 8.20533 10.7467 7.928 11.408C7.672 12.048 7.48 12.56 7.352 12.944C7.05333 13.7973 6.82933 14.4693 6.68 14.96C6.53067 15.4293 6.44533 15.8027 6.424 16.08C6.424 16.336 6.47733 16.5707 6.584 16.784C6.62667 17.168 6.54133 17.4987 6.328 17.776C6.11467 18.032 5.88 18.1707 5.624 18.192C5.38933 18.2347 5.22933 18.096 5.144 17.776Z" fill="#4B4955"/>
</svg>
