<svg width="12" height="18" viewBox="0 0 12 18" fill="none" xmlns="http://www.w3.org/2000/svg">
<path d="M1.344 17.232C0.96 16.9547 0.768 16.72 0.768 16.528C0.682667 16.4 0.586667 16.336 0.48 16.336C0.416 16.3573 0.352 16.2933 0.288 16.144C0.245333 15.9947 0.202667 15.824 0.16 15.632C0.138667 15.4187 0.138667 15.2693 0.16 15.184C0.245334 15.0133 0.373333 14.9173 0.544 14.896C0.714667 14.8533 0.874667 14.8747 1.024 14.96C1.19467 15.024 1.29067 15.1413 1.312 15.312C1.35467 15.4827 1.51467 15.6213 1.792 15.728C2.09067 15.8347 2.47467 15.8773 2.944 15.856C3.54133 15.8347 4.16 15.6853 4.8 15.408C5.46133 15.1307 6.06933 14.7787 6.624 14.352C7.2 13.9253 7.65867 13.488 8 13.04C8.14933 12.7413 8.288 12.3467 8.416 11.856C8.544 11.3653 8.62933 10.928 8.672 10.544C8.71467 10.16 8.68267 9.968 8.576 9.968C8.576 9.968 8.55467 9.89333 8.512 9.744C8.49067 9.59467 8.448 9.43467 8.384 9.264C8.27733 8.944 8.032 8.624 7.648 8.304C7.264 7.96267 6.89067 7.71733 6.528 7.568C6.37867 7.52533 6.10133 7.49333 5.696 7.472C5.312 7.42933 4.96 7.42933 4.64 7.472C4.29867 7.49333 3.98933 7.49333 3.712 7.472C3.456 7.45067 3.328 7.44 3.328 7.44C3.22133 7.41867 3.06133 7.33333 2.848 7.184C2.656 7.03467 2.47467 6.87467 2.304 6.704C2.13333 6.53333 2.048 6.39467 2.048 6.288C2.09067 6.13867 2.19733 5.904 2.368 5.584C2.53867 5.24267 2.74133 4.86933 2.976 4.464C3.232 4.03733 3.49867 3.64267 3.776 3.28C4.05333 2.896 4.32 2.576 4.576 2.32C5.216 1.616 5.94133 1.09333 6.752 0.751999C7.584 0.389332 8.43733 0.229332 9.312 0.271999C9.93067 0.293332 10.368 0.346666 10.624 0.431999C10.9013 0.496 11.168 0.698666 11.424 1.04C11.5947 1.33867 11.6693 1.60533 11.648 1.84C11.6267 2.07467 11.5413 2.23467 11.392 2.32C11.2427 2.40533 11.04 2.384 10.784 2.256C10.4853 2.064 10.0693 1.98933 9.536 2.032C9.024 2.07467 8.48 2.18133 7.904 2.352C7.456 2.52267 6.976 2.8 6.464 3.184C5.97333 3.54667 5.67467 3.84533 5.568 4.08C5.48267 4.144 5.41867 4.208 5.376 4.272C5.35467 4.336 5.30133 4.35733 5.216 4.336C5.216 4.336 5.184 4.37867 5.12 4.464C5.056 4.528 5.024 4.60267 5.024 4.688C4.91733 4.816 4.84267 4.912 4.8 4.976C4.77867 5.01867 4.72533 4.99733 4.64 4.912C4.64 4.912 4.64 4.944 4.64 5.008C4.64 5.072 4.62933 5.14667 4.608 5.232C4.58667 5.38133 4.59733 5.50933 4.64 5.616C4.704 5.70133 4.93867 5.76533 5.344 5.808C5.87733 5.89333 6.28267 5.97867 6.56 6.064C6.83733 6.128 7.24267 6.32 7.776 6.64C8.37333 6.98133 8.85333 7.44 9.216 8.016C9.57867 8.57067 9.824 9.2 9.952 9.904C10.1013 10.608 10.1227 11.3227 10.016 12.048C9.952 12.5173 9.888 12.88 9.824 13.136C9.76 13.392 9.57867 13.744 9.28 14.192C8.78933 14.8747 8.192 15.4827 7.488 16.016C6.784 16.528 6.048 16.9333 5.28 17.232C4.512 17.5093 3.776 17.6587 3.072 17.68C2.38933 17.7013 1.81333 17.552 1.344 17.232Z" fill="#4B4955"/>
</svg>
