<svg width="13" height="18" viewBox="0 0 13 18" fill="none" xmlns="http://www.w3.org/2000/svg">
<path d="M5.096 17.008C4.392 17.2 3.80533 17.2747 3.336 17.232C2.86667 17.168 2.408 16.9227 1.96 16.496C1.66133 16.2613 1.43733 16.0373 1.288 15.824C1.13867 15.6107 1.032 15.2907 0.968 14.864C0.861333 14.544 0.797333 14.288 0.776 14.096C0.754667 13.904 0.765333 13.6693 0.808 13.392C0.872 13.1147 0.957334 12.688 1.064 12.112C1.23467 11.344 1.384 10.7467 1.512 10.32C1.64 9.872 1.896 9.38133 2.28 8.848C2.45067 8.4 2.64267 7.952 2.856 7.504C3.09067 7.03467 3.26133 6.736 3.368 6.608C3.47467 6.45867 3.63467 6.23467 3.848 5.936C4.06133 5.63733 4.28533 5.36 4.52 5.104C4.73333 4.82667 4.92533 4.57067 5.096 4.336C5.288 4.08 5.384 3.952 5.384 3.952C5.49067 3.888 5.58667 3.824 5.672 3.76C5.77867 3.696 5.88533 3.58933 5.992 3.44C6.16267 3.248 6.39733 3.024 6.696 2.768C7.016 2.512 7.368 2.26667 7.752 2.032C8.15733 1.79733 8.552 1.59467 8.936 1.424C9.34133 1.25333 9.71467 1.14667 10.056 1.104C10.7387 0.869333 11.0587 0.879999 11.016 1.136C11.016 1.136 11.048 1.168 11.112 1.232C11.176 1.296 11.2933 1.34933 11.464 1.392C11.5493 1.41333 11.6133 1.488 11.656 1.616C11.72 1.72267 11.784 1.82933 11.848 1.936C11.8907 2.10667 11.88 2.256 11.816 2.384C11.7733 2.512 11.6027 2.71467 11.304 2.992C11.0053 3.20533 10.792 3.32267 10.664 3.344C10.5573 3.36533 10.4613 3.33333 10.376 3.248C10.3973 3.16267 10.3547 3.10933 10.248 3.088C10.1413 3.04533 10.088 3.024 10.088 3.024C9.96 2.98133 9.68267 3.07733 9.256 3.312C8.82933 3.54667 8.37067 3.84533 7.88 4.208C7.41067 4.57067 7.016 4.92267 6.696 5.264C6.504 5.43467 6.33333 5.60533 6.184 5.776C6.03467 5.94667 5.93867 6.07467 5.896 6.16C5.61867 6.43733 5.37333 6.71467 5.16 6.992C4.94667 7.248 4.84 7.376 4.84 7.376C4.904 7.504 5.05333 7.536 5.288 7.472C5.544 7.408 5.68267 7.33333 5.704 7.248C5.704 7.16267 5.93867 7.056 6.408 6.928C6.89867 6.77867 7.38933 6.68267 7.88 6.64C8.072 6.55467 8.328 6.544 8.648 6.608C8.98933 6.672 9.26667 6.72533 9.48 6.768C9.94933 6.85333 10.2693 6.93867 10.44 7.024C10.6107 7.10933 10.824 7.312 11.08 7.632C11.5067 8.03733 11.7947 8.44267 11.944 8.848C12.1147 9.232 12.1893 9.70133 12.168 10.256C12.168 10.5973 12.136 10.896 12.072 11.152C12.008 11.408 11.8587 11.6747 11.624 11.952C11.4533 12.2293 11.2293 12.56 10.952 12.944C10.6747 13.3067 10.3973 13.6373 10.12 13.936C9.864 14.2347 9.64 14.448 9.448 14.576C9.36267 14.6187 9.27733 14.672 9.192 14.736C9.128 14.7787 9.096 14.8 9.096 14.8C9.07467 14.928 8.91467 15.0987 8.616 15.312C8.33867 15.504 7.98667 15.7173 7.56 15.952C7.13333 16.1867 6.696 16.4 6.248 16.592C5.82133 16.784 5.43733 16.9227 5.096 17.008ZM2.952 15.44C3.336 15.5253 3.63467 15.568 3.848 15.568C4.06133 15.5467 4.43467 15.4293 4.968 15.216C5.13867 15.1733 5.29867 15.1307 5.448 15.088C5.59733 15.0453 5.71467 15.0347 5.8 15.056C5.8 15.056 5.94933 14.96 6.248 14.768C6.54667 14.5547 6.89867 14.3307 7.304 14.096C8.43467 13.3707 9.30933 12.5707 9.928 11.696C10.5467 10.8 10.8027 10.064 10.696 9.488C10.7173 9.31733 10.6853 9.15733 10.6 9.008C10.536 8.83733 10.5147 8.70933 10.536 8.624C10.472 8.624 10.3653 8.60267 10.216 8.56C10.0667 8.51733 9.87467 8.47467 9.64 8.432C9.384 8.368 9.128 8.34667 8.872 8.368C8.63733 8.38933 8.27467 8.45333 7.784 8.56C7.31467 8.64533 6.58933 8.80533 5.608 9.04C5.45867 9.08267 5.288 9.15733 5.096 9.264C4.904 9.34933 4.712 9.41333 4.52 9.456C4.43467 9.52 4.30667 9.60533 4.136 9.712C3.96533 9.79733 3.80533 9.86133 3.656 9.904C3.4 9.92533 3.18667 10.128 3.016 10.512C2.84533 10.896 2.64267 11.6213 2.408 12.688C2.25867 13.4133 2.17333 13.904 2.152 14.16C2.13067 14.416 2.17333 14.6293 2.28 14.8C2.32267 15.056 2.408 15.216 2.536 15.28C2.664 15.344 2.80267 15.3973 2.952 15.44Z" fill="#4B4955"/>
</svg>
