<svg width="11" height="20" viewBox="0 0 11 20" fill="none" xmlns="http://www.w3.org/2000/svg">
<path d="M2.072 19.576C1.816 19.5333 1.592 19.3947 1.4 19.16C1.208 18.9253 1.048 18.6587 0.92 18.36C0.834667 17.9547 1.00533 17.2507 1.432 16.248C1.85867 15.224 2.43467 14.0293 3.16 12.664C3.62933 11.896 3.85333 11.448 3.832 11.32C3.81067 11.192 3.608 11.128 3.224 11.128C3.032 11.0853 2.808 11.0427 2.552 11C2.296 10.936 2.136 10.8613 2.072 10.776C1.73067 10.6053 1.528 10.424 1.464 10.232C1.42133 10.0187 1.496 9.90133 1.688 9.88C1.77333 9.83733 1.80533 9.784 1.784 9.72C1.76267 9.63467 1.76267 9.56 1.784 9.496C1.848 9.47467 1.92267 9.47467 2.008 9.496C2.11467 9.51733 2.22133 9.53867 2.328 9.56C2.62667 9.56 2.85067 9.56 3 9.56C3.14933 9.56 3.34133 9.56 3.576 9.56C3.68267 9.56 3.81067 9.56 3.96 9.56C4.13067 9.56 4.28 9.57067 4.408 9.592C4.70667 9.63467 4.90933 9.61333 5.016 9.528C5.12267 9.42133 5.32533 9.176 5.624 8.792C5.79467 8.49333 6.06133 8.09867 6.424 7.608C6.78667 7.096 7.10667 6.57333 7.384 6.04C8.408 4.58933 8.97333 3.61867 9.08 3.128C9.208 2.63733 8.96267 2.41333 8.344 2.456C8.00267 2.47733 7.61867 2.552 7.192 2.68C6.78667 2.808 6.17867 3.02133 5.368 3.32C4.57867 3.66133 4.024 3.87467 3.704 3.96C3.40533 4.024 3.13867 3.992 2.904 3.864C2.776 3.84267 2.66933 3.77867 2.584 3.672C2.52 3.544 2.47733 3.40533 2.456 3.256C2.456 3.08533 2.46667 2.92533 2.488 2.776C2.53067 2.54133 2.968 2.28533 3.8 2.008C4.632 1.73067 5.592 1.45333 6.68 1.176C7.17067 1.09067 7.64 1.03733 8.088 1.016C8.536 0.994666 8.92 1.016 9.24 1.08C9.58133 1.144 9.79467 1.26133 9.88 1.432C9.88 1.432 9.90133 1.464 9.944 1.528C10.008 1.57067 10.0507 1.54933 10.072 1.464C10.1573 1.48533 10.2213 1.57067 10.264 1.72C10.3067 1.848 10.392 2.01867 10.52 2.232C10.7333 2.59467 10.8613 2.86133 10.904 3.032C10.968 3.20267 10.968 3.448 10.904 3.768C10.84 4.00267 10.7333 4.23733 10.584 4.472C10.4347 4.70667 10.3173 4.856 10.232 4.92C10.1253 5.00533 10.04 5.10133 9.976 5.208C9.93333 5.31467 9.912 5.368 9.912 5.368C9.89067 5.45333 9.82667 5.53867 9.72 5.624C9.61333 5.688 9.50667 5.784 9.4 5.912C9.37867 5.99733 9.32533 6.09333 9.24 6.2C9.176 6.30667 9.13333 6.392 9.112 6.456C9.09067 6.47733 9.00533 6.60533 8.856 6.84C8.70667 7.07467 8.52533 7.352 8.312 7.672C8.09867 7.992 7.896 8.29067 7.704 8.568C7.53333 8.824 7.416 9.00533 7.352 9.112C7.05333 9.38933 6.904 9.592 6.904 9.72C6.904 9.848 7.04267 9.976 7.32 10.104C7.68267 10.2533 7.98133 10.4347 8.216 10.648C8.45067 10.84 8.61067 11.0853 8.696 11.384C8.71733 11.8107 8.664 12.056 8.536 12.12C8.42933 12.2693 8.25867 12.3333 8.024 12.312C7.81067 12.2907 7.672 12.2373 7.608 12.152C7.544 12.024 7.39467 11.9067 7.16 11.8C6.94667 11.672 6.73333 11.576 6.52 11.512C6.30667 11.448 6.168 11.416 6.104 11.416C6.01867 11.4587 5.93333 11.544 5.848 11.672C5.76267 11.7787 5.66667 11.896 5.56 12.024C5.41067 12.2373 5.208 12.5893 4.952 13.08C4.71733 13.5493 4.472 14.0187 4.216 14.488C3.98133 14.936 3.8 15.2667 3.672 15.48C3.65067 15.5867 3.58667 15.6933 3.48 15.8C3.39467 15.9067 3.33067 16.0347 3.288 16.184C3.20267 16.3333 3.128 16.5573 3.064 16.856C3 17.1333 2.968 17.3893 2.968 17.624C2.968 17.8373 3 17.9547 3.064 17.976C3.23467 17.9333 3.352 17.9547 3.416 18.04C3.50133 18.104 3.56533 18.2213 3.608 18.392C3.71467 18.5413 3.68267 18.7227 3.512 18.936C3.34133 19.128 3.11733 19.288 2.84 19.416C2.56267 19.5653 2.30667 19.6187 2.072 19.576Z" fill="#4B4955"/>
</svg>
