<svg width="14" height="20" viewBox="0 0 14 20" fill="none" xmlns="http://www.w3.org/2000/svg">
<path d="M2.632 19.024C2.48267 19.0027 2.33333 18.9493 2.184 18.864C2.03467 18.7787 1.88533 18.672 1.736 18.544C1.608 18.416 1.48 18.2987 1.352 18.192C1.20267 17.8293 1.096 17.552 1.032 17.36C0.968 17.168 0.968 16.848 1.032 16.4C1.032 16.144 1.05333 15.8453 1.096 15.504C1.16 15.1627 1.26667 14.8853 1.416 14.672C1.56533 14.2453 1.8 13.744 2.12 13.168C2.46133 12.592 2.824 12.016 3.208 11.44C3.61333 10.864 3.98667 10.3413 4.328 9.872C4.69067 9.38133 4.95733 9.02933 5.128 8.816C5.36267 8.51733 5.46933 8.272 5.448 8.08C5.448 7.86667 5.23467 7.472 4.808 6.896C4.72267 6.66133 4.62667 6.49067 4.52 6.384C4.41333 6.256 4.40267 6.192 4.488 6.192C4.488 6.192 4.456 6.16 4.392 6.096C4.34933 6.01067 4.296 5.89333 4.232 5.744C3.912 5.44533 3.752 4.98667 3.752 4.368C3.77333 3.74933 3.93333 3.14133 4.232 2.544C4.57333 1.776 4.94667 1.2 5.352 0.816C5.77867 0.410666 6.312 0.165332 6.952 0.0799999C7.18667 0.101333 7.58133 0.165333 8.136 0.271999C8.69067 0.378666 9.26667 0.495999 9.864 0.623999C10.4613 0.752 10.9413 0.901333 11.304 1.072C11.56 1.17867 11.848 1.34933 12.168 1.584C12.5093 1.81867 12.808 2.05333 13.064 2.288C13.32 2.50133 13.4587 2.672 13.48 2.8C13.48 2.864 13.512 2.93867 13.576 3.024C13.6613 3.088 13.7147 3.17333 13.736 3.28C13.864 3.51467 13.928 3.792 13.928 4.112C13.9493 4.432 13.928 4.752 13.864 5.072C13.8 5.37067 13.704 5.616 13.576 5.808C13.0427 6.40533 12.6693 6.74667 12.456 6.832C12.3493 6.91733 12.2213 7.024 12.072 7.152C11.944 7.28 11.7947 7.36533 11.624 7.408C11.5173 7.55733 11.4107 7.68533 11.304 7.792C11.2187 7.89867 11.1333 7.952 11.048 7.952C10.9627 7.888 10.8773 7.856 10.792 7.856C10.7067 7.83467 10.664 7.86667 10.664 7.952C10.664 7.99467 10.5147 8.09067 10.216 8.24C9.93867 8.38933 9.65067 8.51733 9.352 8.624C9.05333 8.73067 8.86133 8.76267 8.776 8.72C8.776 8.72 8.744 8.72 8.68 8.72C8.616 8.72 8.52 8.76267 8.392 8.848C8.11467 8.80533 8.27467 9.14667 8.872 9.872C9.36267 10.7893 9.72533 11.6747 9.96 12.528C10.216 13.36 10.184 14 9.864 14.448C9.45867 15.3653 9.02133 16.1227 8.552 16.72C8.08267 17.296 7.70933 17.5733 7.432 17.552C7.432 17.552 7.37867 17.584 7.272 17.648C7.18667 17.712 7.09067 17.776 6.984 17.84C6.94133 17.9893 6.84533 18.0853 6.696 18.128C6.568 18.192 6.45067 18.2133 6.344 18.192C6.152 18.1067 5.82133 18.2133 5.352 18.512C5.07467 18.704 4.744 18.8427 4.36 18.928C3.99733 19.0347 3.656 19.088 3.336 19.088C3.016 19.1093 2.78133 19.088 2.632 19.024ZM3.144 17.392C3.35733 17.4133 3.656 17.3493 4.04 17.2C4.424 17.0507 4.82933 16.8587 5.256 16.624C5.704 16.368 6.088 16.1333 6.408 15.92C7.21867 15.2587 7.76267 14.6187 8.04 14C8.33867 13.3813 8.36 12.7413 8.104 12.08C7.976 11.824 7.83733 11.5467 7.688 11.248C7.53867 10.9493 7.41067 10.7147 7.304 10.544C7.176 10.352 7.05867 10.2133 6.952 10.128C6.86667 10.0427 6.77067 9.968 6.664 9.904C6.664 9.904 6.57867 9.968 6.408 10.096C6.25867 10.2027 6.13067 10.3733 6.024 10.608C5.78933 10.9067 5.59733 11.1627 5.448 11.376C5.32 11.5893 5.21333 11.7707 5.128 11.92C4.97867 12.0693 4.84 12.208 4.712 12.336C4.584 12.464 4.488 12.56 4.424 12.624C4.424 12.688 4.36 12.88 4.232 13.2C4.104 13.4987 3.95467 13.7973 3.784 14.096C3.31467 14.9067 3.016 15.6533 2.888 16.336C2.78133 16.9973 2.86667 17.3493 3.144 17.392ZM8.104 6.832C8.552 6.42667 8.936 6.20267 9.256 6.16C9.59733 6.096 9.832 6.18133 9.96 6.416C10.0027 6.50133 10.248 6.40533 10.696 6.128C11.1653 5.85067 11.5707 5.53067 11.912 5.168C12.04 4.93333 12.1147 4.752 12.136 4.624C12.1573 4.496 12.1467 4.26133 12.104 3.92C12.1253 3.70667 12.104 3.536 12.04 3.408C11.976 3.25867 11.8373 3.12 11.624 2.992C11.432 2.864 11.112 2.71467 10.664 2.544C9.34133 2.07467 8.25333 1.92533 7.4 2.096C6.54667 2.26667 5.97067 2.85333 5.672 3.856C5.544 4.26133 5.48 4.624 5.48 4.944C5.48 5.264 5.56533 5.60533 5.736 5.968C5.928 6.05333 6.056 6.17067 6.12 6.32C6.184 6.448 6.216 6.512 6.216 6.512C6.216 6.704 6.30133 6.8 6.472 6.8C6.51467 6.90667 6.664 7.024 6.92 7.152C7.176 7.28 7.57067 7.17333 8.104 6.832Z" fill="#4B4955"/>
</svg>
