<svg width="11" height="20" viewBox="0 0 11 20" fill="none" xmlns="http://www.w3.org/2000/svg">
<path d="M4.016 19.864C3.90933 19.8427 3.792 19.7893 3.664 19.704C3.536 19.6187 3.42933 19.5227 3.344 19.416C3.25867 19.3093 3.216 19.2347 3.216 19.192C3.23733 19.0853 3.19467 19.032 3.088 19.032C3.088 19.032 3.06667 18.968 3.024 18.84C2.98133 18.6907 2.97067 18.5413 2.992 18.392C2.992 18.328 3.00267 18.168 3.024 17.912C3.04533 17.656 3.056 17.4533 3.056 17.304C3.09867 16.8773 3.20533 16.312 3.376 15.608C3.54667 14.904 3.74933 14.168 3.984 13.4C4.21867 12.6107 4.44267 11.9067 4.656 11.288C4.95467 10.52 5.08267 10.0507 5.04 9.88C5.01867 9.70933 4.752 9.64533 4.24 9.688C3.57867 9.79467 2.97067 9.70933 2.416 9.432C1.88267 9.15467 1.456 8.74933 1.136 8.216C0.816 7.66133 0.677334 7.07467 0.72 6.456C0.741334 6.136 0.805334 5.848 0.912 5.592C1.04 5.31467 1.24267 4.94133 1.52 4.472C1.968 3.81067 2.45867 3.224 2.992 2.712C3.52533 2.17867 4.08 1.74133 4.656 1.4C5.25333 1.05867 5.82933 0.834665 6.384 0.727999C6.72533 0.664 7.13067 0.642666 7.6 0.664C8.06933 0.685333 8.432 0.749332 8.688 0.855999C9.008 0.983999 9.30667 1.22933 9.584 1.592C9.88267 1.93333 10.1173 2.296 10.288 2.68C10.4587 3.064 10.512 3.384 10.448 3.64C10.2987 4.344 10.128 4.87733 9.936 5.24C9.744 5.60267 9.50933 5.93333 9.232 6.232C8.89067 6.53067 8.48533 7.07467 8.016 7.864C7.568 8.65333 7.10933 9.56 6.64 10.584C6.192 11.5867 5.79733 12.5787 5.456 13.56C5.15733 14.456 4.96533 15.2667 4.88 15.992C4.816 16.7173 4.85867 17.0907 5.008 17.112C5.09333 17.112 5.2 17.144 5.328 17.208C5.47733 17.272 5.59467 17.304 5.68 17.304C5.744 17.3893 5.776 17.4853 5.776 17.592C5.776 17.6987 5.72267 17.8693 5.616 18.104C5.552 18.2533 5.44533 18.4347 5.296 18.648C5.168 18.84 5.01867 19.032 4.848 19.224C4.67733 19.416 4.51733 19.5653 4.368 19.672C4.21867 19.8 4.10133 19.864 4.016 19.864ZM2.576 7.672C2.896 8.01333 3.33333 8.12 3.888 7.992C4.44267 7.864 5.01867 7.56533 5.616 7.096C6.23467 6.62667 6.768 6.04 7.216 5.336C7.472 5.03733 7.68533 4.76 7.856 4.504C8.048 4.22667 8.18667 4.056 8.272 3.992C8.54933 3.69333 8.69867 3.448 8.72 3.256C8.76267 3.064 8.70933 2.89333 8.56 2.744C8.41067 2.50933 8.19733 2.38133 7.92 2.36C7.64267 2.33867 7.248 2.424 6.736 2.616C6.39467 2.68 6.07467 2.78667 5.776 2.936C5.49867 3.064 5.136 3.27733 4.688 3.576C4.60267 3.66133 4.51733 3.71467 4.432 3.736C4.34667 3.736 4.26133 3.72533 4.176 3.704C4.176 3.704 4.15467 3.71467 4.112 3.736C4.06933 3.736 4.048 3.77867 4.048 3.864C4.15467 4.056 4.02667 4.30133 3.664 4.6C3.10933 5.19733 2.736 5.80533 2.544 6.424C2.352 7.02133 2.36267 7.43733 2.576 7.672Z" fill="#4B4955"/>
</svg>
